<svg width="24" height="24" viewBox="0 0 24 24" fill="none" xmlns="http://www.w3.org/2000/svg">
    <g clip-path="url(#clip0_38_1060)" fill="none">
        <path d="M11.3335 18H10.6668C8.15267 18 6.89559 18 6.11454 17.219C5.3335 16.4379 5.3335 15.1808 5.3335 12.6667V11.3333M18.6668 11.3333C18.6668 8.81918 18.6668 7.5621 17.8858 6.78105C17.1047 6 15.8477 6 13.3335 6H10.6668C8.15267 6 6.89559 6 6.11454 6.78105C5.67909 7.2165 5.48641 7.79992 5.40116 8.66667"
              stroke-width="1.5" stroke-linecap="round"/>
        <path d="M12.6665 15.3333C12.6665 14.0762 12.6665 13.4477 13.057 13.0572C13.4476 12.6666 14.0761 12.6666 15.3332 12.6666H15.9998C17.2569 12.6666 17.8855 12.6666 18.276 13.0572C18.6665 13.4477 18.6665 14.0762 18.6665 15.3333C18.6665 16.5904 18.6665 17.2189 18.276 17.6094C17.8855 18 17.2569 18 15.9998 18H15.3332C14.0761 18 13.4476 18 13.057 17.6094C12.6665 17.2189 12.6665 16.5904 12.6665 15.3333Z"
              stroke-width="1.5"/>
    </g>
    <defs>
        <clipPath id="clip0_38_1060">
            <rect width="24" height="24" fill="transparent"/>
        </clipPath>
    </defs>
</svg>
