<svg width="16" height="16" viewBox="0 0 16 16" stroke="none" xmlns="http://www.w3.org/2000/svg">
<path fill-rule="evenodd" clip-rule="evenodd" d="M5.33333 14C4.59733 14 4 13.4027 4 12.6667C4 11.9307 4.59733 11.3333 5.33333 11.3333C6.06933 11.3333 6.66667 11.9307 6.66667 12.6667C6.66667 13.4027 6.06933 14 5.33333 14ZM4 8C4 8.736 4.59733 9.33333 5.33333 9.33333C6.06933 9.33333 6.66667 8.736 6.66667 8C6.66667 7.264 6.06933 6.66667 5.33333 6.66667C4.59733 6.66667 4 7.264 4 8ZM4 3.33333C4 4.06933 4.59733 4.66667 5.33333 4.66667C6.06933 4.66667 6.66667 4.06933 6.66667 3.33333C6.66667 2.59733 6.06933 2 5.33333 2C4.59733 2 4 2.59733 4 3.33333Z" />
<path fill-rule="evenodd" clip-rule="evenodd" d="M10.9998 14C10.2638 14 9.6665 13.4027 9.6665 12.6667C9.6665 11.9307 10.2638 11.3333 10.9998 11.3333C11.7358 11.3333 12.3332 11.9307 12.3332 12.6667C12.3332 13.4027 11.7358 14 10.9998 14ZM9.6665 8C9.6665 8.736 10.2638 9.33333 10.9998 9.33333C11.7358 9.33333 12.3332 8.736 12.3332 8C12.3332 7.264 11.7358 6.66667 10.9998 6.66667C10.2638 6.66667 9.6665 7.264 9.6665 8ZM9.6665 3.33333C9.6665 4.06933 10.2638 4.66667 10.9998 4.66667C11.7358 4.66667 12.3332 4.06933 12.3332 3.33333C12.3332 2.59733 11.7358 2 10.9998 2C10.2638 2 9.6665 2.59733 9.6665 3.33333Z" />
</svg>
